<svg xmlns="http://www.w3.org/2000/svg" viewBox="0 0 548.18628 79.646501" height="79.647" width="548.186"><path d="M4.156 0v33.915h.219c.729-2.116 1.768-3.994 3.119-5.635a20.725 20.725 0 0 1 10.558-6.836 24.142 24.142 0 0 1 6.454-.877c3.282 0 6.072.401 8.369 1.204 2.299.804 4.175 1.86 5.635 3.173 1.458 1.314 2.606 2.789 3.446 4.43a20.549 20.549 0 0 1 1.805 4.98c.365 1.677.583 3.3.656 4.868.073 1.569.11 2.935.11 4.101v34.791H40.37V42.56c0-1.384-.11-3.137-.328-5.253-.22-2.113-.858-4.137-1.915-6.07-1.058-1.934-2.663-3.592-4.813-4.978-2.154-1.386-5.127-2.079-8.916-2.079-3.212 0-6.055.584-8.535 1.75a18.495 18.495 0 0 0-6.345 4.868c-1.75 2.079-3.083 4.559-3.994 7.44-.913 2.881-1.368 6.036-1.368 9.463v30.414H0V0h4.156M97.435 46.934c-.146-3.064-.657-5.962-1.535-8.697-.877-2.735-2.176-5.143-3.894-7.222a19.437 19.437 0 0 0-6.252-4.977c-2.451-1.24-5.249-1.859-8.393-1.859-3.363 0-6.326.638-8.886 1.913-2.56 1.277-4.717 2.955-6.47 5.034-1.757 2.077-3.109 4.504-4.06 7.274a34.123 34.123 0 0 0-1.755 8.534zM56.08 50.545v.657c0 3.281.438 6.417 1.316 9.407.878 2.993 2.175 5.618 3.894 7.878 1.719 2.262 3.876 4.049 6.472 5.361 2.597 1.314 5.613 1.97 9.052 1.97 5.63 0 10.091-1.478 13.382-4.432 3.291-2.953 5.559-7.057 6.803-12.307h4.156c-1.24 6.564-3.921 11.596-8.041 15.097-4.122 3.5-9.573 5.25-16.357 5.25-4.156 0-7.786-.746-10.885-2.241-3.1-1.493-5.688-3.537-7.768-6.126-2.079-2.59-3.629-5.65-4.649-9.19-1.023-3.537-1.531-7.349-1.531-11.433 0-3.94.527-7.714 1.586-11.326 1.055-3.608 2.641-6.78 4.759-9.516 2.113-2.735 4.758-4.923 7.931-6.564 3.174-1.64 6.91-2.463 11.215-2.463 3.938 0 7.42.73 10.449 2.188 3.025 1.46 5.56 3.446 7.602 5.963 2.042 2.517 3.592 5.435 4.65 8.752 1.057 3.321 1.587 6.876 1.587 10.668 0 .366-.02.783-.055 1.258-.038.476-.054.857-.054 1.149H56.08M144.175 46.17c-1.024 1.239-2.571 2.077-4.651 2.515-2.079.438-4.394.766-6.946.984l-7.003.656a72.63 72.63 0 0 0-6.126.93c-2.043.402-3.884 1.077-5.525 2.025a11.305 11.305 0 0 0-3.994 3.884c-1.022 1.64-1.532 3.774-1.532 6.4 0 4.159 1.313 7.24 3.94 9.244 2.626 2.007 6.235 3.01 10.83 3.01 4.74 0 8.497-.856 11.268-2.571 2.771-1.713 4.886-3.684 6.346-5.91 1.458-2.223 2.39-4.374 2.79-6.454.4-2.079.603-3.482.603-4.212zm0 20.785h-.219c-.657 1.68-1.606 3.266-2.845 4.76-1.241 1.494-2.753 2.827-4.541 3.993-1.787 1.167-3.811 2.078-6.071 2.736-2.263.656-4.743.983-7.44.983-5.98 0-10.611-1.294-13.894-3.883-3.282-2.587-4.924-6.583-4.924-11.98 0-3.282.657-5.962 1.969-8.041 1.314-2.08 2.971-3.72 4.979-4.923 2.005-1.204 4.229-2.06 6.674-2.572a65.555 65.555 0 0 1 7.056-1.094l6.455-.547c2.99-.218 5.342-.564 7.056-1.04 1.713-.473 3.009-1.128 3.885-1.97.875-.836 1.421-1.913 1.641-3.227.219-1.312.328-2.952.328-4.922 0-1.533-.293-2.954-.875-4.268-.585-1.312-1.496-2.478-2.736-3.499-1.24-1.02-2.844-1.822-4.813-2.409-1.97-.581-4.377-.873-7.221-.873-5.033 0-9.099 1.24-12.199 3.72-3.101 2.48-4.797 6.234-5.087 11.268h-4.158c.291-6.2 2.279-10.848 5.963-13.949 3.682-3.1 8.916-4.65 15.7-4.65 6.783 0 11.723 1.331 14.825 3.992 3.098 2.665 4.65 6.146 4.65 10.45v32.713c0 .8.016 1.602.053 2.404.036.805.164 1.532.384 2.189.217.656.582 1.188 1.094 1.586.508.404 1.238.601 2.187.601.729 0 1.75-.108 3.064-.327v3.5a13.06 13.06 0 0 1-3.391.438c-1.679 0-3.01-.217-3.994-.655-.985-.439-1.734-1.022-2.244-1.75-.511-.73-.857-1.586-1.037-2.571a17.624 17.624 0 0 1-.274-3.228v-2.955M162.553 78.114h4.159V0h-4.16zM200.626 25.49h-12.254v39.278c0 2.261.255 4.048.767 5.36.509 1.314 1.295 2.316 2.352 3.01 1.056.693 2.334 1.11 3.829 1.257 1.495.147 3.228.183 5.198.108v3.611a38.839 38.839 0 0 1-6.183-.053c-2.006-.182-3.774-.729-5.305-1.642-1.531-.91-2.754-2.28-3.666-4.103-.913-1.822-1.295-4.34-1.148-7.548V25.49h-10.394V21.88h10.394V4.376h4.156V21.88h12.254v3.61M212.441 0v33.915h.218c.729-2.116 1.767-3.994 3.12-5.635a20.701 20.701 0 0 1 10.556-6.836 24.148 24.148 0 0 1 6.455-.877c3.283 0 6.071.401 8.37 1.204 2.298.804 4.174 1.86 5.634 3.173 1.459 1.314 2.607 2.789 3.446 4.43a20.554 20.554 0 0 1 1.806 4.98c.364 1.677.583 3.3.657 4.868.07 1.569.108 2.935.108 4.101v34.791h-4.157V42.56c0-1.384-.11-3.137-.328-5.253-.218-2.113-.858-4.137-1.915-6.07-1.058-1.934-2.663-3.592-4.813-4.978-2.153-1.386-5.125-2.079-8.917-2.079-3.211 0-6.055.584-8.533 1.75a18.488 18.488 0 0 0-6.347 4.868c-1.75 2.079-3.081 4.559-3.993 7.44-.912 2.881-1.367 6.036-1.367 9.463v30.414h-4.157V0h4.157M275.832 21.553h11.817v8.313l.219.22c1.896-3.135 4.375-5.598 7.44-7.385 3.062-1.787 6.455-2.68 10.175-2.68 6.197 0 11.085 1.606 14.658 4.814 3.574 3.21 5.361 8.024 5.361 14.441v38.838h-12.47V42.56c-.148-4.448-1.094-7.676-2.846-9.683-1.75-2.005-4.486-3.01-8.205-3.01-2.117 0-4.012.384-5.69 1.149-1.679.767-3.1 1.824-4.266 3.173-1.167 1.35-2.079 2.938-2.735 4.76-.656 1.823-.985 3.756-.985 5.799v33.367h-12.473V21.553M373.007 44.855a20.172 20.172 0 0 0-1.258-5.688c-.694-1.823-1.642-3.41-2.844-4.76-1.204-1.348-2.665-2.442-4.378-3.281s-3.628-1.26-5.743-1.26c-2.188 0-4.176.384-5.963 1.149-1.787.767-3.319 1.824-4.594 3.173-1.277 1.35-2.298 2.937-3.064 4.76-.765 1.823-1.185 3.794-1.257 5.907zm-29.1 8.205c0 2.188.308 4.306.928 6.346.619 2.045 1.548 3.83 2.79 5.362 1.239 1.531 2.808 2.753 4.704 3.665 1.896.913 4.157 1.368 6.784 1.368 3.647 0 6.58-.784 8.806-2.353 2.225-1.568 3.884-3.921 4.977-7.057h11.816c-.654 3.064-1.787 5.8-3.39 8.205-1.606 2.408-3.54 4.433-5.8 6.074-2.26 1.64-4.796 2.88-7.603 3.72-2.809.837-5.743 1.257-8.806 1.257-4.452 0-8.388-.73-11.817-2.188-3.428-1.457-6.328-3.502-8.697-6.128-2.371-2.624-4.158-5.76-5.361-9.408-1.204-3.646-1.805-7.657-1.805-12.034 0-4.011.637-7.823 1.915-11.434 1.275-3.609 3.1-6.782 5.47-9.517 2.368-2.737 5.232-4.906 8.588-6.511 3.354-1.602 7.148-2.406 11.378-2.406 4.447 0 8.441.93 11.98 2.79 3.536 1.86 6.472 4.32 8.807 7.385 2.334 3.064 4.029 6.583 5.088 10.558 1.056 3.975 1.33 8.078.82 12.306h-41.573" fill="#fff"/><path d="M403.51 48.358l-19.584-26.805h15.098l11.816 17.395 12.363-17.395h14.442L418.389 47.7l21.662 30.414h-14.988L410.73 57.218l-13.894 20.896h-14.66l21.334-29.757M492.259 78.114h-12.254v-7.877h-.219c-1.531 2.846-3.812 5.126-6.839 6.839-3.026 1.713-6.108 2.57-9.243 2.57-7.44 0-12.819-1.84-16.138-5.523-3.32-3.683-4.978-9.247-4.978-16.685V21.553h12.473v34.68c0 4.962.946 8.462 2.844 10.504 1.895 2.041 4.558 3.064 7.986 3.064 2.626 0 4.814-.401 6.564-1.205 1.751-.803 3.174-1.877 4.268-3.228 1.093-1.349 1.877-2.97 2.352-4.868.474-1.896.711-3.939.711-6.126V21.553h12.473v56.561M510.332 59.953c.365 3.649 1.75 6.2 4.158 7.657 2.408 1.461 5.286 2.191 8.643 2.191 1.166 0 2.497-.091 3.993-.274a17.22 17.22 0 0 0 4.213-1.04c1.312-.51 2.387-1.257 3.227-2.243.836-.985 1.22-2.279 1.149-3.883-.075-1.604-.658-2.919-1.751-3.94-1.095-1.02-2.499-1.84-4.212-2.46-1.715-.619-3.666-1.148-5.853-1.587a267.67 267.67 0 0 1-6.674-1.423 62.336 62.336 0 0 1-6.729-1.86c-2.152-.727-4.086-1.712-5.798-2.953-1.714-1.238-3.082-2.825-4.103-4.76-1.022-1.931-1.532-4.322-1.532-7.166 0-3.064.747-5.633 2.243-7.712 1.494-2.079 3.391-3.757 5.689-5.034 2.299-1.275 4.85-2.169 7.659-2.68 2.807-.508 5.486-.766 8.041-.766 2.916 0 5.706.313 8.369.931 2.662.62 5.069 1.624 7.221 3.008 2.151 1.386 3.939 3.192 5.36 5.415 1.424 2.228 2.316 4.907 2.681 8.042h-13.019c-.585-2.99-1.952-4.995-4.102-6.018-2.152-1.019-4.615-1.532-7.385-1.532-.875 0-1.915.075-3.118.22-1.203.147-2.336.421-3.392.82-1.057.403-1.952.985-2.68 1.75-.73.767-1.094 1.77-1.094 3.01 0 1.532.528 2.772 1.587 3.72 1.056.947 2.442 1.732 4.156 2.35 1.714.622 3.666 1.149 5.854 1.587 2.187.438 4.447.913 6.783 1.424a70.361 70.361 0 0 1 6.673 1.859c2.189.73 4.14 1.715 5.855 2.954 1.712 1.24 3.099 2.81 4.156 4.706 1.056 1.895 1.586 4.23 1.586 7.002 0 3.355-.766 6.2-2.297 8.533-1.531 2.334-3.52 4.23-5.963 5.688-2.445 1.46-5.161 2.517-8.151 3.172-2.99.657-5.944.986-8.861.986-3.574 0-6.875-.4-9.901-1.203-3.028-.802-5.653-2.025-7.878-3.666a17.667 17.667 0 0 1-5.25-6.128c-1.277-2.442-1.952-5.341-2.025-8.697h12.473M4.156 0v33.915h.219c.729-2.116 1.768-3.994 3.119-5.635a20.725 20.725 0 0 1 10.558-6.836 24.142 24.142 0 0 1 6.454-.877c3.282 0 6.072.401 8.369 1.204 2.299.804 4.175 1.86 5.635 3.173 1.458 1.314 2.606 2.789 3.446 4.43a20.549 20.549 0 0 1 1.805 4.98c.365 1.677.583 3.3.656 4.868.073 1.569.11 2.935.11 4.101v34.791H40.37V42.56c0-1.384-.11-3.137-.328-5.253-.22-2.113-.858-4.137-1.915-6.07-1.058-1.934-2.663-3.592-4.813-4.978-2.154-1.386-5.127-2.079-8.916-2.079-3.212 0-6.055.584-8.535 1.75a18.495 18.495 0 0 0-6.345 4.868c-1.75 2.079-3.083 4.559-3.994 7.44-.913 2.881-1.368 6.036-1.368 9.463v30.414H0V0h4.156M97.435 46.934c-.146-3.064-.657-5.962-1.535-8.697-.877-2.735-2.176-5.143-3.894-7.222a19.437 19.437 0 0 0-6.252-4.977c-2.451-1.24-5.249-1.859-8.393-1.859-3.363 0-6.326.638-8.886 1.913-2.56 1.277-4.717 2.955-6.47 5.034-1.757 2.077-3.109 4.504-4.06 7.274a34.123 34.123 0 0 0-1.755 8.534zM56.08 50.545v.657c0 3.281.438 6.417 1.316 9.407.878 2.993 2.175 5.618 3.894 7.878 1.719 2.262 3.876 4.049 6.472 5.361 2.597 1.314 5.613 1.97 9.052 1.97 5.63 0 10.091-1.478 13.382-4.432 3.291-2.953 5.559-7.057 6.803-12.307h4.156c-1.24 6.564-3.921 11.596-8.041 15.097-4.122 3.5-9.573 5.25-16.357 5.25-4.156 0-7.786-.746-10.885-2.241-3.1-1.493-5.688-3.537-7.768-6.126-2.079-2.59-3.629-5.65-4.649-9.19-1.023-3.537-1.531-7.349-1.531-11.433 0-3.94.527-7.714 1.586-11.326 1.055-3.608 2.641-6.78 4.759-9.516 2.113-2.735 4.758-4.923 7.931-6.564 3.174-1.64 6.91-2.463 11.215-2.463 3.938 0 7.42.73 10.449 2.188 3.025 1.46 5.56 3.446 7.602 5.963 2.042 2.517 3.592 5.435 4.65 8.752 1.057 3.321 1.587 6.876 1.587 10.668 0 .366-.02.783-.055 1.258-.038.476-.054.857-.054 1.149H56.08M144.175 46.17c-1.024 1.239-2.571 2.077-4.651 2.515-2.079.438-4.394.766-6.946.984l-7.003.656a72.63 72.63 0 0 0-6.126.93c-2.043.402-3.884 1.077-5.525 2.025a11.305 11.305 0 0 0-3.994 3.884c-1.022 1.64-1.532 3.774-1.532 6.4 0 4.159 1.313 7.24 3.94 9.244 2.626 2.007 6.235 3.01 10.83 3.01 4.74 0 8.497-.856 11.268-2.571 2.771-1.713 4.886-3.684 6.346-5.91 1.458-2.223 2.39-4.374 2.79-6.454.4-2.079.603-3.482.603-4.212zm0 20.785h-.219c-.657 1.68-1.606 3.266-2.845 4.76-1.241 1.494-2.753 2.827-4.541 3.993-1.787 1.167-3.811 2.078-6.071 2.736-2.263.656-4.743.983-7.44.983-5.98 0-10.611-1.294-13.894-3.883-3.282-2.587-4.924-6.583-4.924-11.98 0-3.282.657-5.962 1.969-8.041 1.314-2.08 2.971-3.72 4.979-4.923 2.005-1.204 4.229-2.06 6.674-2.572a65.555 65.555 0 0 1 7.056-1.094l6.455-.547c2.99-.218 5.342-.564 7.056-1.04 1.713-.473 3.009-1.128 3.885-1.97.875-.836 1.421-1.913 1.641-3.227.219-1.312.328-2.952.328-4.922 0-1.533-.293-2.954-.875-4.268-.585-1.312-1.496-2.478-2.736-3.499-1.24-1.02-2.844-1.822-4.813-2.409-1.97-.581-4.377-.873-7.221-.873-5.033 0-9.099 1.24-12.199 3.72-3.101 2.48-4.797 6.234-5.087 11.268h-4.158c.291-6.2 2.279-10.848 5.963-13.949 3.682-3.1 8.916-4.65 15.7-4.65 6.783 0 11.723 1.331 14.825 3.992 3.098 2.665 4.65 6.146 4.65 10.45v32.713c0 .8.016 1.602.053 2.404.036.805.164 1.532.384 2.189.217.656.582 1.188 1.094 1.586.508.404 1.238.601 2.187.601.729 0 1.75-.108 3.064-.327v3.5a13.06 13.06 0 0 1-3.391.438c-1.679 0-3.01-.217-3.994-.655-.985-.439-1.734-1.022-2.244-1.75-.511-.73-.857-1.586-1.037-2.571a17.624 17.624 0 0 1-.274-3.228v-2.955M162.553 78.114h4.159V0h-4.16zM200.626 25.49h-12.254v39.278c0 2.261.255 4.048.767 5.36.509 1.314 1.295 2.316 2.352 3.01 1.056.693 2.334 1.11 3.829 1.257 1.495.147 3.228.183 5.198.108v3.611a38.839 38.839 0 0 1-6.183-.053c-2.006-.182-3.774-.729-5.305-1.642-1.531-.91-2.754-2.28-3.666-4.103-.913-1.822-1.295-4.34-1.148-7.548V25.49h-10.394V21.88h10.394V4.376h4.156V21.88h12.254v3.61M212.441 0v33.915h.218c.729-2.116 1.767-3.994 3.12-5.635a20.701 20.701 0 0 1 10.556-6.836 24.148 24.148 0 0 1 6.455-.877c3.283 0 6.071.401 8.37 1.204 2.298.804 4.174 1.86 5.634 3.173 1.459 1.314 2.607 2.789 3.446 4.43a20.554 20.554 0 0 1 1.806 4.98c.364 1.677.583 3.3.657 4.868.07 1.569.108 2.935.108 4.101v34.791h-4.157V42.56c0-1.384-.11-3.137-.328-5.253-.218-2.113-.858-4.137-1.915-6.07-1.058-1.934-2.663-3.592-4.813-4.978-2.153-1.386-5.125-2.079-8.917-2.079-3.211 0-6.055.584-8.533 1.75a18.488 18.488 0 0 0-6.347 4.868c-1.75 2.079-3.081 4.559-3.993 7.44-.912 2.881-1.367 6.036-1.367 9.463v30.414h-4.157V0h4.157M275.832 21.553h11.817v8.313l.219.22c1.896-3.135 4.375-5.598 7.44-7.385 3.062-1.787 6.455-2.68 10.175-2.68 6.197 0 11.085 1.606 14.658 4.814 3.574 3.21 5.361 8.024 5.361 14.441v38.838h-12.47V42.56c-.148-4.448-1.094-7.676-2.846-9.683-1.75-2.005-4.486-3.01-8.205-3.01-2.117 0-4.012.384-5.69 1.149-1.679.767-3.1 1.824-4.266 3.173-1.167 1.35-2.079 2.938-2.735 4.76-.656 1.823-.985 3.756-.985 5.799v33.367h-12.473V21.553" fill="#fff"/><path d="M373.007 44.855a20.172 20.172 0 0 0-1.258-5.688c-.694-1.823-1.642-3.41-2.844-4.76-1.204-1.348-2.665-2.442-4.378-3.281s-3.628-1.26-5.743-1.26c-2.188 0-4.176.384-5.963 1.149-1.787.767-3.319 1.824-4.594 3.173-1.277 1.35-2.298 2.937-3.064 4.76-.765 1.823-1.185 3.794-1.257 5.907zm-29.1 8.205c0 2.188.308 4.306.928 6.346.619 2.045 1.548 3.83 2.79 5.362 1.239 1.531 2.808 2.753 4.704 3.665 1.896.913 4.157 1.368 6.784 1.368 3.647 0 6.58-.784 8.806-2.353 2.225-1.568 3.884-3.921 4.977-7.057h11.816c-.654 3.064-1.787 5.8-3.39 8.205-1.606 2.408-3.54 4.433-5.8 6.074-2.26 1.64-4.796 2.88-7.603 3.72-2.809.837-5.743 1.257-8.806 1.257-4.452 0-8.388-.73-11.817-2.188-3.428-1.457-6.328-3.502-8.697-6.128-2.371-2.624-4.158-5.76-5.361-9.408-1.204-3.646-1.805-7.657-1.805-12.034 0-4.011.637-7.823 1.915-11.434 1.275-3.609 3.1-6.782 5.47-9.517 2.368-2.737 5.232-4.906 8.588-6.511 3.354-1.602 7.148-2.406 11.378-2.406 4.447 0 8.441.93 11.98 2.79 3.536 1.86 6.472 4.32 8.807 7.385 2.334 3.064 4.029 6.583 5.088 10.558 1.056 3.975 1.33 8.078.82 12.306h-41.573" fill="#fff"/><path d="M403.51 48.358l-19.584-26.805h15.098l11.816 17.395 12.363-17.395h14.442L418.389 47.7l21.662 30.414h-14.988L410.73 57.218l-13.894 20.896h-14.66l21.334-29.757M492.259 78.114h-12.254v-7.877h-.219c-1.531 2.846-3.812 5.126-6.839 6.839-3.026 1.713-6.108 2.57-9.243 2.57-7.44 0-12.819-1.84-16.138-5.523-3.32-3.683-4.978-9.247-4.978-16.685V21.553h12.473v34.68c0 4.962.946 8.462 2.844 10.504 1.895 2.041 4.558 3.064 7.986 3.064 2.626 0 4.814-.401 6.564-1.205 1.751-.803 3.174-1.877 4.268-3.228 1.093-1.349 1.877-2.97 2.352-4.868.474-1.896.711-3.939.711-6.126V21.553h12.473v56.561M510.332 59.953c.365 3.649 1.75 6.2 4.158 7.657 2.408 1.461 5.286 2.191 8.643 2.191 1.166 0 2.497-.091 3.993-.274a17.22 17.22 0 0 0 4.213-1.04c1.312-.51 2.387-1.257 3.227-2.243.836-.985 1.22-2.279 1.149-3.883-.075-1.604-.658-2.919-1.751-3.94-1.095-1.02-2.499-1.84-4.212-2.46-1.715-.619-3.666-1.148-5.853-1.587a267.67 267.67 0 0 1-6.674-1.423 62.336 62.336 0 0 1-6.729-1.86c-2.152-.727-4.086-1.712-5.798-2.953-1.714-1.238-3.082-2.825-4.103-4.76-1.022-1.931-1.532-4.322-1.532-7.166 0-3.064.747-5.633 2.243-7.712 1.494-2.079 3.391-3.757 5.689-5.034 2.299-1.275 4.85-2.169 7.659-2.68 2.807-.508 5.486-.766 8.041-.766 2.916 0 5.706.313 8.369.931 2.662.62 5.069 1.624 7.221 3.008 2.151 1.386 3.939 3.192 5.36 5.415 1.424 2.228 2.316 4.907 2.681 8.042h-13.019c-.585-2.99-1.952-4.995-4.102-6.018-2.152-1.019-4.615-1.532-7.385-1.532-.875 0-1.915.075-3.118.22-1.203.147-2.336.421-3.392.82-1.057.403-1.952.985-2.68 1.75-.73.767-1.094 1.77-1.094 3.01 0 1.532.528 2.772 1.587 3.72 1.056.947 2.442 1.732 4.156 2.35 1.714.622 3.666 1.149 5.854 1.587 2.187.438 4.447.913 6.783 1.424a70.361 70.361 0 0 1 6.673 1.859c2.189.73 4.14 1.715 5.855 2.954 1.712 1.24 3.099 2.81 4.156 4.706 1.056 1.895 1.586 4.23 1.586 7.002 0 3.355-.766 6.2-2.297 8.533-1.531 2.334-3.52 4.23-5.963 5.688-2.445 1.46-5.161 2.517-8.151 3.172-2.99.657-5.944.986-8.861.986-3.574 0-6.875-.4-9.901-1.203-3.028-.802-5.653-2.025-7.878-3.666a17.667 17.667 0 0 1-5.25-6.128c-1.277-2.442-1.952-5.341-2.025-8.697h12.473" fill="#fff"/></svg>