<?xml version="1.0" encoding="UTF-8"?>
<svg width="8063px" height="1742px" viewBox="0 0 8063 1742" version="1.1" xmlns="http://www.w3.org/2000/svg" xmlns:xlink="http://www.w3.org/1999/xlink">
    <!-- Generator: Sketch 48.2 (47327) - http://www.bohemiancoding.com/sketch -->
    <title>Artboard</title>
    <desc>Created with Sketch.</desc>
    <defs></defs>
    <g id="Page-1" stroke="none" stroke-width="1" fill="none" fill-rule="evenodd">
        <g id="Artboard">
            <g id="Logo@20x" transform="translate(977.000000, 270.000000)">
                <path d="M2507.45161,555.162162 C2507.45161,638.045458 2493.70879,709.441143 2466.22273,769.351351 C2438.73668,829.26156 2402.23935,878.360167 2356.72965,916.648649 C2311.21995,954.937127 2259.40275,983.09 2201.2765,1001.10811 C2143.15025,1019.12622 2083.89841,1028.13514 2023.5192,1028.13514 L1741,1028.13514 L1741,82.1891892 L2037.03687,82.1891892 C2104.62553,82.1891892 2167.03146,90.5224392 2224.25653,107.189189 C2281.48159,123.855939 2331.04587,151.107919 2372.95084,188.945946 C2414.85582,226.783973 2447.74847,275.657358 2471.6298,335.567568 C2495.51113,395.477776 2507.45161,468.675244 2507.45161,555.162162 Z M2312.79723,555.162162 C2312.79723,458.765285 2290.7186,386.46871 2246.56068,338.27027 C2202.40275,290.071831 2130.30926,265.972973 2030.27803,265.972973 L1930.24731,265.972973 L1930.24731,844.351351 L2023.5192,844.351351 C2073.08422,844.351351 2116.11503,837.369439 2152.6129,823.405405 C2189.11078,809.441372 2219.07464,789.846974 2242.50538,764.621622 C2265.93611,739.396269 2283.5089,708.991169 2295.22427,673.405405 C2306.93964,637.819642 2312.79723,598.405623 2312.79723,555.162162 Z M3190.70813,674.081081 C3190.70813,687.594662 3190.48285,699.081034 3190.03224,708.540541 C3189.58166,718.000047 3188.90578,726.333296 3188.00459,733.540541 L2763.54992,733.540541 C2765.35228,757.864985 2770.7593,778.585499 2779.77112,795.702703 C2788.78294,812.819906 2800.04755,826.558508 2813.56528,836.918919 C2827.08301,847.27933 2842.17759,854.936912 2858.84946,859.891892 C2875.52133,864.846871 2892.41824,867.324324 2909.5407,867.324324 C2935.67499,867.324324 2959.10539,862.819865 2979.83255,853.810811 C3000.55974,844.801757 3017.68195,832.639715 3031.19968,817.324324 L3163.6728,928.135135 C3134.83497,965.072256 3097.2112,993.450353 3050.80029,1013.27027 C3004.38942,1033.09019 2957.30336,1043 2909.5407,1043 C2858.17332,1043 2811.98842,1034.2163 2770.98464,1016.64865 C2729.98085,999.080993 2695.06056,974.306466 2666.22273,942.324324 C2637.3849,910.342183 2615.08098,871.603831 2599.31029,826.108108 C2583.5396,780.612385 2575.65437,729.937215 2575.65437,674.081081 C2575.65437,620.026757 2583.76489,570.252479 2599.98617,524.756757 C2616.20745,479.261034 2638.51138,440.072236 2666.89861,407.189189 C2695.28585,374.306143 2728.6291,348.855946 2766.92934,330.837838 C2805.22958,312.81973 2846.90863,303.810811 2891.96774,303.810811 C2938.82921,303.810811 2980.95884,313.4954 3018.3579,332.864865 C3055.75696,352.23433 3087.07257,378.81064 3112.30567,412.594595 C3137.53877,446.378546 3156.9139,485.792568 3170.43163,530.837838 C3183.94938,575.883108 3190.70813,623.630379 3190.70813,674.081081 Z M3009.57141,593 C3007.76907,576.783702 3004.16438,561.243317 2998.75728,546.378378 C2993.35019,531.51344 2985.46498,518.000062 2975.10137,505.837838 C2964.73779,493.675614 2951.89612,483.991028 2936.57603,476.783784 C2921.25594,469.576539 2903.23256,465.972973 2882.50537,465.972973 C2848.26045,465.972973 2821.22539,478.135015 2801.39938,502.459459 C2781.57338,526.783904 2769.85818,556.963784 2766.25345,593 L3009.57141,593 Z M3872.61289,884.891892 C3855.49044,908.315432 3837.24177,929.486392 3817.86634,948.405405 C3798.49094,967.324418 3777.31346,983.99092 3754.33332,998.405405 C3731.3532,1012.81989 3705.66987,1023.85582 3677.28262,1031.51351 C3648.89541,1039.17121 3617.12919,1043 3581.98309,1043 C3536.02282,1043 3492.7667,1033.99108 3452.2135,1015.97297 C3411.66033,997.954865 3376.28945,972.729891 3346.09983,940.297297 C3315.91024,907.864703 3292.25456,868.901128 3275.13209,823.405405 C3258.00964,777.909683 3249.44852,728.135405 3249.44852,674.081081 C3249.44852,620.026757 3258.00964,570.252479 3275.13209,524.756757 C3292.25456,479.261034 3315.91024,440.072236 3346.09983,407.189189 C3376.28945,374.306143 3412.11091,348.855946 3453.56527,330.837838 C3495.01966,312.81973 3540.52867,303.810811 3590.09368,303.810811 C3657.68236,303.810811 3714.00539,318.450303 3759.0645,347.72973 C3804.12361,377.009154 3841.52211,414.621392 3871.26112,460.567568 L3748.25037,584.891892 C3727.5232,555.162012 3704.76868,530.837932 3679.98616,511.918919 C3655.20366,492.999906 3623.88805,483.540541 3586.03838,483.540541 C3540.97928,483.540541 3505.15785,500.657485 3478.57295,534.891892 C3451.98808,569.126298 3438.69583,615.52223 3438.69583,674.081081 C3438.69583,730.838123 3451.98808,776.558384 3478.57295,811.243243 C3505.15785,845.928102 3540.97928,863.27027 3586.03838,863.27027 C3622.98687,863.27027 3654.07717,855.387465 3679.31027,839.621622 C3704.54338,823.855776 3729.32552,801.558702 3753.65743,772.72973 L3872.61289,884.891892 Z M4547.75881,674.081081 C4547.75881,728.135405 4539.6483,777.909683 4523.42701,823.405405 C4507.20576,868.901128 4484.90182,907.864703 4456.51457,940.297297 C4428.12736,972.729891 4394.10824,997.954865 4354.4562,1015.97297 C4314.80419,1033.99108 4271.99868,1043 4226.03838,1043 C4180.07811,1043 4137.49788,1033.99108 4098.29645,1015.97297 C4059.09504,997.954865 4025.3012,972.729891 3996.91396,940.297297 C3968.52674,907.864703 3946.2228,868.901128 3930.00152,823.405405 C3913.78026,777.909683 3905.66972,728.135405 3905.66972,674.081081 C3905.66972,620.026757 3913.78026,570.252479 3930.00152,524.756757 C3946.2228,479.261034 3968.52674,440.072236 3996.91396,407.189189 C4025.3012,374.306143 4059.09504,348.855946 4098.29645,330.837838 C4137.49788,312.81973 4180.07811,303.810811 4226.03838,303.810811 C4271.99868,303.810811 4314.80419,312.81973 4354.4562,330.837838 C4394.10824,348.855946 4428.12736,374.306143 4456.51457,407.189189 C4484.90182,440.072236 4507.20576,479.261034 4523.42701,524.756757 C4539.6483,570.252479 4547.75881,620.026757 4547.75881,674.081081 Z M4358.5115,674.081081 C4358.5115,620.026757 4347.69749,574.756939 4326.0691,538.27027 C4304.44075,501.783602 4271.09749,483.540541 4226.03838,483.540541 C4180.97927,483.540541 4147.86135,501.558378 4126.68354,537.594595 C4105.50577,573.630811 4094.91703,619.125852 4094.91703,674.081081 C4094.91703,729.03631 4105.50577,774.306128 4126.68354,809.891892 C4147.86135,845.477656 4180.97927,863.27027 4226.03838,863.27027 C4248.56795,863.27027 4268.16836,858.090141 4284.84023,847.72973 C4301.51212,837.369318 4315.25494,823.405494 4326.0691,805.837838 C4336.88329,788.270182 4344.99383,768.000115 4350.4009,745.027027 C4355.808,722.053939 4358.5115,698.405526 4358.5115,674.081081 Z M5067.45162,1028.13514 L5067.45162,644.351351 C5067.45162,581.287973 5057.08815,538.045162 5036.36099,514.621622 C5015.63379,491.198082 4985.89523,479.486486 4947.1444,479.486486 C4908.39354,479.486486 4878.4297,490.972858 4857.25193,513.945946 C4836.07412,536.919033 4825.48541,579.035729 4825.48541,640.297297 L4825.48541,1028.13514 L4638.94163,1028.13514 L4638.94163,318.675676 L4825.48541,318.675676 L4825.48541,365.972973 C4841.70667,348.85577 4864.01061,334.216278 4892.39786,322.054054 C4920.78507,309.89183 4953.90303,303.810811 4991.75269,303.810811 C5081.87091,303.810811 5148.1068,332.864574 5190.46237,390.972973 C5232.81792,449.081372 5253.9954,528.134636 5253.9954,628.135135 L5253.9954,1028.13514 L5067.45162,1028.13514 Z M5953.47312,674.081081 C5953.47312,687.594662 5953.24782,699.081034 5952.79724,708.540541 C5952.34663,718.000047 5951.67075,726.333296 5950.76959,733.540541 L5526.3149,733.540541 C5528.11725,757.864985 5533.52426,778.585499 5542.5361,795.702703 C5551.54792,812.819906 5562.81251,826.558508 5576.33026,836.918919 C5589.84799,847.27933 5604.94255,854.936912 5621.61444,859.891892 C5638.28631,864.846871 5655.18321,867.324324 5672.30569,867.324324 C5698.43995,867.324324 5721.87035,862.819865 5742.59755,853.810811 C5763.32471,844.801757 5780.44692,832.639715 5793.96467,817.324324 L5926.43779,928.135135 C5897.59994,965.072256 5859.97616,993.450353 5813.56529,1013.27027 C5767.15438,1033.09019 5720.06833,1043 5672.30569,1043 C5620.93829,1043 5574.7534,1034.2163 5533.74962,1016.64865 C5492.74581,999.080993 5457.82554,974.306466 5428.98771,942.324324 C5400.14986,910.342183 5377.84595,871.603831 5362.07527,826.108108 C5346.30456,780.612385 5338.41936,729.937215 5338.41936,674.081081 C5338.41936,620.026757 5346.52987,570.252479 5362.75116,524.756757 C5378.97241,479.261034 5401.27635,440.072236 5429.6636,407.189189 C5458.05081,374.306143 5491.39407,348.855946 5529.69432,330.837838 C5567.99454,312.81973 5609.67361,303.810811 5654.73272,303.810811 C5701.59418,303.810811 5743.72383,313.4954 5781.12289,332.864865 C5818.52195,352.23433 5849.83756,378.81064 5875.07066,412.594595 C5900.30377,446.378546 5919.67887,485.792568 5933.19662,530.837838 C5946.71435,575.883108 5953.47312,623.630379 5953.47312,674.081081 Z M5772.33641,593 C5770.53403,576.783702 5766.92934,561.243317 5761.52228,546.378378 C5756.11518,531.51344 5748.22994,518.000062 5737.86636,505.837838 C5727.50275,493.675614 5714.66109,483.991028 5699.34102,476.783784 C5684.02092,469.576539 5665.99752,465.972973 5645.27036,465.972973 C5611.02541,465.972973 5583.99037,478.135015 5564.16437,502.459459 C5544.33836,526.783904 5532.62316,556.963784 5529.01844,593 L5772.33641,593 Z M6433.96467,999.756757 C6418.64457,1012.36943 6397.91767,1022.72969 6371.78341,1030.83784 C6345.64912,1038.94599 6318.16348,1043 6289.32565,1043 C6260.4878,1043 6234.35392,1037.81987 6210.9232,1027.45946 C6187.49244,1017.09905 6167.66673,1002.45955 6151.44547,983.540541 C6135.22418,964.621528 6122.60782,942.09923 6113.59601,915.972973 C6104.58416,889.846716 6100.07834,861.018176 6100.07834,829.486486 L6100.07834,494.351351 L5981.12289,494.351351 L5981.12289,318.675676 L6100.07834,318.675676 L6100.07834,136.243243 L6286.62212,43 L6286.62212,318.675676 L6456.9447,318.675676 L6456.9447,494.351351 L6286.62212,494.351351 L6286.62212,779.486486 C6286.62212,813.720893 6292.47971,836.468411 6304.19508,847.72973 C6315.91043,858.991046 6333.03264,864.621622 6355.56221,864.621622 C6372.68466,864.621622 6388.6804,860.567609 6403.54992,852.459459 C6418.41941,844.35131 6437.56924,830.387485 6461,810.567568 L6433.96467,999.756757 Z" id="Deconet" fill="#FFFFFF" fill-rule="nonzero"></path>
                <path d="M7.69995861,372.165144 C-18.1693053,691.670761 22.0961227,1116.37699 114.176035,1184.00319 C257.313585,1289.12763 1024,1184.00319 1024,600.262757 C1024,221.644494 709.004906,48.9014459 443.681305,0" id="Path-2" stroke="#FFFFFF" stroke-width="225"></path>
            </g>
        </g>
    </g>
</svg>