<svg xmlns="http://www.w3.org/2000/svg" viewBox="0 0 718.98669 126.53333" height="126.533" width="718.987"><defs><clipPath id="a"><path d="M807.609 739.145l-351.07 200.05c-22.965 13.082-51.465 13.02-74.371-.203L39.609 741.305C16.547 728 2.223 703.191 2.223 676.574v-192.91c0-41.211 33.53-74.734 74.75-74.734h82.082c1.336 0 2.629.156 3.898.39 49.449.176 98.899.223 148.336-.332 16.949-.195 26.781 5.606 32.227 21.512 4.136 12.082 10.07 23.555 16.242 37.668 8.738-36.73 16.937-70.625 24.812-104.602 2.266-9.773 6.559-17.519 17.141-19.121 10.785-1.64 16.762 5.235 21.809 13.645 15.695 26.121 31.82 51.992 47.296 78.242 3.59 6.082 7.68 7.988 14.493 7.773 15.554-.5 31.148-.371 46.714-.07 13.504.254 21.407 7.637 21.348 19.153-.066 11.718-7.863 18.621-21.523 18.699-19.707.109-39.446-.633-59.11.254-13.504.605-21.941-4.5-28.425-16.133-9.704-17.403-20.61-34.129-32.305-53.27-3.516 14.52-6.508 26.727-9.422 38.953-6.32 26.536-12.555 53.086-18.906 79.622-2.121 8.855-7.309 14.714-16.825 15.625-9.46.886-15.738-3.711-19.652-11.993-1.359-2.871-2.601-5.793-3.867-8.711-10.367-23.859-20.535-47.804-31.309-71.476-1.457-3.203-5.902-7.117-9.019-7.168-33.68-.516-67.375-.41-101.063-.125-2.496.019-6.172 2.098-7.277 4.246-15.387 30.031-24.008 61.73-18.617 95.566 14.297 89.766 107.086 139.61 190.191 102.676 17.961-7.988 33.418-19.258 46.621-33.887 10.867-12.031 22.289-11.785 33.45-.019 1.75 1.848 3.433 3.75 5.207 5.578 59.179 60.727 161.152 52.207 208.597-17.598 31.418-46.222 30.289-94.738 8.578-144.054-11.89-27.032-30.222-49.922-50.031-71.524-54.25-59.148-117.406-107.617-183.398-152.703-4.504-3.078-7.555-2.687-11.731.352-19.765 14.382-40.023 28.105-59.551 42.812-19.269 14.512-37.828 29.969-56.785 44.903-7.254 5.71-15.25 6.316-23.039 1.394-7.699-4.863-10.004-12.715-7.273-20.84 1.59-4.734 5.5-9.375 9.57-12.48 37.34-28.504 74.539-57.227 112.586-84.754 31.684-22.93 29.223-22.012 61.262-.117 71.769 49.05 140.605 101.64 197.566 168.074 21.59 25.176 41.141 51.894 51.559 83.859 5.465 16.758 9.008 34.141 13.422 51.239v32.421c-5.45 19.102-8.911 39.063-16.696 57.168-27.859 64.778-96.933 105.309-167.218 99.875-42.282-3.273-63.844-12.144-108.684-44.66-70.113 53.043-143.383 63.266-219.469 14.094-36.055-23.301-58.226-57.949-68.949-99.473-10.316-39.972-4.223-78.742 10.566-117.793h-75.43c-17.562 0-31.859 14.285-31.859 31.844v192.91c0 11.34 6.11 21.91 15.938 27.582l342.558 197.688c9.75 5.629 21.895 5.66 31.684.082l351.074-200.047c9.981-5.691 16.145-16.356 16.09-27.832L800.5 272.582c-.059-11.379-6.242-21.934-16.133-27.551L435.355 47.004c-9.792-5.555-21.929-5.508-31.687.148L32.207 262.434c-10.25 5.937-23.367 2.441-29.312-7.801-5.942-10.254-2.446-23.371 7.804-29.317L382.164 10.031C393.703 3.344 406.672.004 419.641.004c12.746 0 25.492 3.23 36.886 9.695l349 198.028c23.223 13.175 37.731 37.941 37.864 64.64l1.957 401.473c.132 26.933-14.332 51.957-37.739 65.305z"/></clipPath><linearGradient id="b" gradientTransform="scale(826.33 -826.33) rotate(60.524 .995 -.282)" gradientUnits="userSpaceOnUse" x2="1"><stop offset="0" stop-color="#9adaa3"/><stop offset=".54" stop-color="#6faace"/><stop offset="1" stop-color="#bbbaba"/></linearGradient></defs><path d="M148.175 78.728c.109 1.971.548 3.711 1.314 5.218a12.632 12.632 0 0 0 2.999 3.86c1.233 1.068 2.67 1.877 4.315 2.424 1.642.548 3.422.821 5.34.821 1.368 0 2.834-.122 4.394-.37a15.221 15.221 0 0 0 4.355-1.355 9.047 9.047 0 0 0 3.328-2.751c.875-1.178 1.315-2.67 1.315-4.48 0-2.354-.712-4.134-2.138-5.34-1.424-1.204-3.217-2.135-5.38-2.792-2.164-.658-4.492-1.192-6.984-1.603-2.493-.41-4.82-1.026-6.982-1.848-2.166-.821-3.959-1.985-5.383-3.492-1.424-1.505-2.136-3.71-2.136-6.615 0-2.08.465-3.819 1.396-5.216a10.402 10.402 0 0 1 3.575-3.328c1.45-.821 3.081-1.409 4.889-1.766a27.916 27.916 0 0 1 5.421-.535c2.191 0 4.244.248 6.163.74 1.916.493 3.573 1.287 4.97 2.383 1.397 1.096 2.491 2.493 3.287 4.19.792 1.699 1.191 3.752 1.191 6.162h-3.123c0-1.916-.316-3.56-.944-4.93-.63-1.368-1.508-2.477-2.629-3.327-1.123-.848-2.452-1.48-3.984-1.89-1.535-.41-3.179-.616-4.93-.616-1.425 0-2.863.138-4.314.41-1.45.275-2.752.74-3.903 1.398a8.762 8.762 0 0 0-2.834 2.547c-.739 1.041-1.11 2.3-1.11 3.778 0 1.7.411 3.07 1.234 4.11.821 1.04 1.902 1.876 3.245 2.505 1.341.63 2.847 1.137 4.519 1.52 1.669.383 3.353.768 5.053 1.15 2.08.383 4.039.835 5.873 1.356 1.835.52 3.423 1.232 4.766 2.135a9.715 9.715 0 0 1 3.164 3.492c.766 1.425 1.149 3.232 1.149 5.422 0 2.302-.52 4.192-1.56 5.67a12.049 12.049 0 0 1-3.944 3.574c-1.59.904-3.356 1.532-5.3 1.89a31.69 31.69 0 0 1-5.71.533c-2.41 0-4.642-.315-6.695-.944-2.055-.629-3.85-1.588-5.383-2.876-1.533-1.285-2.739-2.86-3.615-4.723-.877-1.862-1.342-4.027-1.396-6.49h3.122M185.307 92.777v-42.23h3.122v42.23zm0-50.2v-8.462h3.122v8.462h-3.122M196.805 50.547h3.123v8.626h.164c.33-1.313.904-2.56 1.725-3.738a13.304 13.304 0 0 1 2.999-3.08 14.26 14.26 0 0 1 8.504-2.795c2.025 0 3.779.262 5.259.782 1.478.522 2.737 1.205 3.778 2.053 1.04.85 1.862 1.807 2.464 2.876.603 1.068 1.014 2.15 1.234 3.245h.164c1.258-2.957 2.944-5.189 5.053-6.695 2.108-1.507 4.888-2.26 8.339-2.26 1.917 0 3.682.287 5.3.862a11.127 11.127 0 0 1 4.189 2.63c1.177 1.178 2.096 2.67 2.753 4.477.656 1.807.986 3.945.986 6.41v28.837h-3.122V63.856c0-2.683-.41-4.792-1.233-6.326-.821-1.532-1.795-2.696-2.917-3.49-1.123-.795-2.246-1.287-3.368-1.481-1.123-.191-1.987-.287-2.588-.287-1.918 0-3.684.329-5.3.986a11.24 11.24 0 0 0-4.19 2.959c-1.178 1.313-2.094 2.943-2.753 4.888-.656 1.945-.985 4.177-.985 6.695v24.977h-3.122V63.856c0-2.629-.397-4.723-1.192-6.284-.793-1.561-1.725-2.724-2.792-3.492-1.069-.766-2.165-1.26-3.288-1.48-1.122-.217-2.013-.328-2.669-.328-1.48 0-3.013.303-4.601.904-1.59.603-3.04 1.534-4.355 2.793-1.315 1.26-2.383 2.876-3.204 4.848-.821 1.971-1.232 4.3-1.232 6.983v24.977h-3.123v-42.23M278.177 91.051c2.744 0 5.12-.52 7.126-1.56 2.004-1.04 3.65-2.437 4.941-4.19 1.29-1.754 2.252-3.793 2.884-6.12.632-2.329.948-4.807.948-7.437 0-2.41-.304-4.777-.907-7.107-.605-2.328-1.537-4.409-2.802-6.243-1.263-1.835-2.895-3.314-4.9-4.437-2.006-1.122-4.435-1.685-7.29-1.685-2.801 0-5.189.549-7.166 1.643-1.978 1.097-3.584 2.548-4.819 4.355-1.237 1.807-2.13 3.875-2.679 6.203a31.565 31.565 0 0 0-.822 7.27c0 2.522.246 4.945.74 7.272.494 2.33 1.332 4.382 2.513 6.161 1.181 1.781 2.772 3.206 4.777 4.273 2.006 1.068 4.491 1.602 7.456 1.602zm-15.569-30.81h.247c.329-1.039.876-2.19 1.644-3.45.765-1.26 1.778-2.423 3.038-3.493 1.26-1.067 2.78-1.956 4.56-2.669 1.78-.712 3.822-1.069 6.122-1.069 3.23 0 6.038.605 8.421 1.809 2.383 1.206 4.355 2.822 5.916 4.848 1.56 2.026 2.724 4.38 3.49 7.065.767 2.685 1.151 5.505 1.151 8.462 0 3.233-.385 6.19-1.153 8.874-.768 2.685-1.936 4.998-3.5 6.942-1.565 1.944-3.541 3.464-5.93 4.559-2.387 1.095-5.2 1.643-8.44 1.643-3.515 0-6.645-.767-9.39-2.3-2.745-1.532-4.748-4.026-6.01-7.476h-.163l-.003 23.909h-3.04V50.547h3.04v9.694M303.603 92.777h3.121V34.115h-3.121zM309.925 50.547h3.698l15.692 38.533 14.461-38.533h3.532l-18.076 46.749a105.1 105.1 0 0 1-2.423 5.382c-.74 1.505-1.574 2.614-2.505 3.326-1.097.875-2.397 1.41-3.904 1.603-1.507.191-3.49.288-5.956.288v-2.711c2.245 0 3.997-.178 5.257-.535 1.26-.357 2.438-1.082 3.535-2.177.601-.603 1.232-1.713 1.89-3.327.657-1.617 1.478-3.82 2.463-6.615l-17.664-41.983" fill="#9adaa3"/><path d="M343.756 50.3h10.188l10.763 32.617h.164L375.224 50.3h9.695l-15.2 42.477H359.2L343.756 50.3M389.187 50.3h9.366v42.477h-9.366zm0-16.185h9.366v8.872h-9.366v-8.872M402.821 50.3h7.067V37.566h9.365V50.3h8.463v6.984h-8.463V79.96c0 .986.042 1.836.124 2.547.082.713.274 1.314.575 1.809.301.492.752.86 1.356 1.107.601.248 1.423.37 2.464.37.657 0 1.315-.013 1.972-.04a9.824 9.824 0 0 0 1.972-.288v7.23c-1.041.109-2.053.218-3.04.329-.985.108-2 .164-3.04.164-2.465 0-4.45-.234-5.956-.7-1.508-.464-2.685-1.149-3.533-2.053-.85-.903-1.424-2.04-1.726-3.408-.301-1.37-.48-2.93-.533-4.684V57.284h-7.067V50.3M457.368 71.498c-1.425.932-3.177 1.493-5.257 1.683-2.083.193-4.164.481-6.246.864-.985.164-1.945.398-2.874.698a8.706 8.706 0 0 0-2.466 1.232c-.712.521-1.273 1.206-1.684 2.054-.41.85-.616 1.876-.616 3.08 0 1.043.3 1.92.904 2.63a6.506 6.506 0 0 0 2.178 1.684c.848.412 1.778.7 2.792.864 1.013.164 1.932.246 2.752.246 1.041 0 2.164-.137 3.369-.41a11.167 11.167 0 0 0 3.41-1.398 8.97 8.97 0 0 0 2.67-2.506c.71-1.013 1.068-2.26 1.068-3.738zm9.365 11.83c0 1.152.151 1.973.452 2.465.302.494.891.74 1.767.74h.987c.381 0 .821-.053 1.314-.164v6.49c-.329.109-.753.233-1.273.37-.521.136-1.056.26-1.603.369-.548.11-1.096.192-1.644.246-.548.055-1.013.084-1.396.084-1.917 0-3.505-.385-4.765-1.151-1.261-.766-2.083-2.109-2.465-4.025-1.862 1.807-4.148 3.12-6.859 3.942-2.713.822-5.328 1.234-7.847 1.234-1.918 0-3.753-.26-5.505-.782-1.753-.52-3.3-1.285-4.643-2.3-1.341-1.012-2.409-2.3-3.202-3.861-.796-1.562-1.192-3.382-1.192-5.464 0-2.629.478-4.765 1.437-6.408.959-1.643 2.219-2.93 3.78-3.862 1.561-.93 3.313-1.602 5.259-2.012a61.13 61.13 0 0 1 5.873-.946 48.143 48.143 0 0 1 4.848-.698c1.532-.136 2.888-.37 4.067-.699 1.177-.328 2.108-.833 2.793-1.52.684-.683 1.027-1.711 1.027-3.08 0-1.204-.288-2.19-.863-2.959a5.788 5.788 0 0 0-2.136-1.765c-.85-.412-1.795-.685-2.833-.821a22.745 22.745 0 0 0-2.959-.206c-2.63 0-4.793.548-6.49 1.643-1.7 1.096-2.658 2.793-2.877 5.094h-9.365c.164-2.739.821-5.012 1.972-6.82a13.634 13.634 0 0 1 4.395-4.355c1.778-1.095 3.793-1.86 6.038-2.3a35.992 35.992 0 0 1 6.902-.657c2.081 0 4.136.22 6.162.658 2.026.438 3.848 1.15 5.464 2.135a11.82 11.82 0 0 1 3.902 3.822c.986 1.56 1.478 3.463 1.478 5.71v21.854M473.793 92.777h9.367V34.115h-9.367z" fill="#6faace"/><path d="M526.59 29.857v27.189h.174c.584-1.697 1.417-3.202 2.5-4.517a16.611 16.611 0 0 1 8.464-5.482 19.372 19.372 0 0 1 5.175-.703c2.63 0 4.868.323 6.709.966 1.841.644 3.347 1.491 4.517 2.543 1.168 1.052 2.09 2.237 2.763 3.552a16.432 16.432 0 0 1 1.447 3.991c.292 1.345.468 2.647.525 3.904a71.96 71.96 0 0 1 .09 3.287v27.891h-3.334V63.975c0-1.111-.088-2.515-.263-4.211a12.84 12.84 0 0 0-1.534-4.868c-.85-1.548-2.136-2.879-3.86-3.99-1.726-1.11-4.108-1.666-7.148-1.666-2.574 0-4.854.469-6.84 1.402a14.816 14.816 0 0 0-5.088 3.904c-1.403 1.667-2.471 3.655-3.202 5.963-.73 2.312-1.096 4.839-1.096 7.586v24.383h-3.333V29.857h3.333M599.641 67.482c-.118-2.455-.526-4.78-1.23-6.973-.704-2.192-1.744-4.122-3.122-5.787a15.543 15.543 0 0 0-5.013-3.991c-1.965-.995-4.207-1.49-6.727-1.49-2.697 0-5.073.51-7.124 1.533-2.053 1.024-3.782 2.368-5.188 4.035-1.408 1.666-2.492 3.61-3.254 5.832a27.37 27.37 0 0 0-1.407 6.841zm-33.153 2.895v.526c0 2.631.35 5.145 1.056 7.543.703 2.398 1.743 4.503 3.121 6.315 1.378 1.812 3.107 3.245 5.188 4.298 2.082 1.052 4.5 1.578 7.256 1.578 4.514 0 8.09-1.185 10.728-3.552 2.639-2.368 4.456-5.657 5.454-9.867h3.332c-.995 5.262-3.144 9.297-6.447 12.103-3.303 2.807-7.673 4.21-13.11 4.21-3.334 0-6.243-.6-8.729-1.798-2.485-1.198-4.56-2.836-6.225-4.911-1.668-2.076-2.91-4.531-3.728-7.367-.82-2.836-1.228-5.891-1.228-9.165 0-3.158.423-6.184 1.27-9.079.849-2.894 2.12-5.437 3.817-7.63 1.694-2.192 3.814-3.947 6.358-5.263 2.543-1.315 5.54-1.974 8.99-1.974 3.158 0 5.949.586 8.376 1.755 2.425 1.17 4.457 2.764 6.096 4.78 1.636 2.017 2.88 4.356 3.726 7.017.848 2.662 1.272 5.512 1.272 8.55 0 .294-.014.63-.042 1.01-.031.38-.044.688-.044.92h-36.487M637.172 66.869c-.819.995-2.06 1.665-3.727 2.017-1.666.35-3.524.613-5.569.789l-5.613.526a57.288 57.288 0 0 0-4.912.746c-1.638.322-3.114.863-4.43 1.622a9.08 9.08 0 0 0-3.201 3.114c-.82 1.316-1.228 3.026-1.228 5.131 0 3.332 1.053 5.804 3.157 7.411 2.106 1.609 5 2.412 8.684 2.412 3.799 0 6.81-.686 9.032-2.061 2.223-1.372 3.918-2.952 5.088-4.737 1.17-1.783 1.915-3.508 2.238-5.174.32-1.666.481-2.791.481-3.377zm0 16.664h-.175c-.526 1.346-1.288 2.617-2.28 3.815-.994 1.2-2.208 2.267-3.64 3.202-1.434.935-3.057 1.665-4.869 2.193-1.812.526-3.8.789-5.963.789-4.796 0-8.508-1.04-11.138-3.114-2.631-2.075-3.947-5.277-3.947-9.604 0-2.631.525-4.78 1.577-6.446 1.054-1.667 2.383-2.984 3.991-3.948 1.61-.964 3.39-1.651 5.352-2.06a52.42 52.42 0 0 1 5.656-.878l5.175-.439c2.397-.174 4.282-.451 5.657-.833 1.373-.379 2.41-.905 3.113-1.578.702-.67 1.14-1.534 1.316-2.587.175-1.052.263-2.369.263-3.947 0-1.228-.235-2.368-.701-3.42-.47-1.054-1.199-1.987-2.194-2.808-.994-.817-2.28-1.46-3.858-1.93-1.579-.465-3.508-.7-5.788-.7-4.035 0-7.296.995-9.78 2.982-2.486 1.988-3.846 4.998-4.079 9.034h-3.332c.233-4.97 1.827-8.697 4.78-11.183 2.952-2.484 7.148-3.729 12.585-3.729 5.438 0 9.399 1.068 11.884 3.202 2.486 2.135 3.728 4.927 3.728 8.376v26.224c0 .645.014 1.287.044 1.93.03.644.132 1.228.307 1.754s.468.952.877 1.272c.41.321.994.483 1.755.483.583 0 1.403-.089 2.455-.264v2.807c-.878.235-1.784.35-2.719.35-1.345 0-2.412-.174-3.201-.526-.79-.35-1.39-.818-1.798-1.402-.41-.585-.688-1.272-.833-2.063a14.165 14.165 0 0 1-.22-2.585v-2.37M650.148 92.478h3.333V29.857h-3.333zM678.913 50.292h-9.824V81.78c0 1.813.206 3.245.615 4.297.408 1.052 1.037 1.858 1.885 2.411.847.558 1.871.894 3.07 1.01 1.198.118 2.588.147 4.166.088v2.893a31.268 31.268 0 0 1-4.956-.043c-1.608-.145-3.025-.583-4.253-1.316-1.227-.73-2.208-1.826-2.939-3.29-.73-1.459-1.037-3.476-.92-6.05V50.292h-8.332v-2.895h8.332V33.365h3.332v14.032h9.824v2.895M686.627 29.857v27.189h.176c.582-1.697 1.416-3.202 2.5-4.517a16.628 16.628 0 0 1 8.463-5.482 19.386 19.386 0 0 1 5.174-.703c2.632 0 4.868.323 6.71.966 1.842.644 3.347 1.491 4.517 2.543 1.169 1.052 2.089 2.237 2.762 3.552a16.432 16.432 0 0 1 1.447 3.991c.292 1.345.468 2.647.527 3.904.057 1.258.088 2.354.088 3.287v27.891h-3.334V63.975c0-1.111-.088-2.515-.262-4.211a12.84 12.84 0 0 0-1.535-4.868c-.85-1.548-2.135-2.879-3.859-3.99-1.725-1.11-4.109-1.666-7.148-1.666-2.574 0-4.854.469-6.842 1.402a14.836 14.836 0 0 0-5.087 3.904c-1.403 1.667-2.47 3.655-3.201 5.963-.731 2.312-1.096 4.839-1.096 7.586v24.383h-3.332V29.857h3.332" fill="#a7a5a6"/><g clip-path="url(#a)" transform="matrix(.13333 0 0 -.13333 0 126.533)"><path d="M807.609 739.145l-351.07 200.05c-22.965 13.082-51.465 13.02-74.371-.203L39.609 741.305C16.547 728 2.223 703.191 2.223 676.574v-192.91c0-41.211 33.53-74.734 74.75-74.734h82.082c1.336 0 2.629.156 3.898.39 49.449.176 98.899.223 148.336-.332 16.949-.195 26.781 5.606 32.227 21.512 4.136 12.082 10.07 23.555 16.242 37.668 8.738-36.73 16.937-70.625 24.812-104.602 2.266-9.773 6.559-17.519 17.141-19.121 10.785-1.64 16.762 5.235 21.809 13.645 15.695 26.121 31.82 51.992 47.296 78.242 3.59 6.082 7.68 7.988 14.493 7.773 15.554-.5 31.148-.371 46.714-.07 13.504.254 21.407 7.637 21.348 19.153-.066 11.718-7.863 18.621-21.523 18.699-19.707.109-39.446-.633-59.11.254-13.504.605-21.941-4.5-28.425-16.133-9.704-17.403-20.61-34.129-32.305-53.27-3.516 14.52-6.508 26.727-9.422 38.953-6.32 26.536-12.555 53.086-18.906 79.622-2.121 8.855-7.309 14.714-16.825 15.625-9.46.886-15.738-3.711-19.652-11.993-1.359-2.871-2.601-5.793-3.867-8.711-10.367-23.859-20.535-47.804-31.309-71.476-1.457-3.203-5.902-7.117-9.019-7.168-33.68-.516-67.375-.41-101.063-.125-2.496.019-6.172 2.098-7.277 4.246-15.387 30.031-24.008 61.73-18.617 95.566 14.297 89.766 107.086 139.61 190.191 102.676 17.961-7.988 33.418-19.258 46.621-33.887 10.867-12.031 22.289-11.785 33.45-.019 1.75 1.848 3.433 3.75 5.207 5.578 59.179 60.727 161.152 52.207 208.597-17.598 31.418-46.222 30.289-94.738 8.578-144.054-11.89-27.032-30.222-49.922-50.031-71.524-54.25-59.148-117.406-107.617-183.398-152.703-4.504-3.078-7.555-2.687-11.731.352-19.765 14.382-40.023 28.105-59.551 42.812-19.269 14.512-37.828 29.969-56.785 44.903-7.254 5.71-15.25 6.316-23.039 1.394-7.699-4.863-10.004-12.715-7.273-20.84 1.59-4.734 5.5-9.375 9.57-12.48 37.34-28.504 74.539-57.227 112.586-84.754 31.684-22.93 29.223-22.012 61.262-.117 71.769 49.05 140.605 101.64 197.566 168.074 21.59 25.176 41.141 51.894 51.559 83.859 5.465 16.758 9.008 34.141 13.422 51.239v32.421c-5.45 19.102-8.911 39.063-16.696 57.168-27.859 64.778-96.933 105.309-167.218 99.875-42.282-3.273-63.844-12.144-108.684-44.66-70.113 53.043-143.383 63.266-219.469 14.094-36.055-23.301-58.226-57.949-68.949-99.473-10.316-39.972-4.223-78.742 10.566-117.793h-75.43c-17.562 0-31.859 14.285-31.859 31.844v192.91c0 11.34 6.11 21.91 15.938 27.582l342.558 197.688c9.75 5.629 21.895 5.66 31.684.082l351.074-200.047c9.981-5.691 16.145-16.356 16.09-27.832L800.5 272.582c-.059-11.379-6.242-21.934-16.133-27.551L435.355 47.004c-9.792-5.555-21.929-5.508-31.687.148L32.207 262.434c-10.25 5.937-23.367 2.441-29.312-7.801-5.942-10.254-2.446-23.371 7.804-29.317L382.164 10.031C393.703 3.344 406.672.004 419.641.004c12.746 0 25.492 3.23 36.886 9.695l349 198.028c23.223 13.175 37.731 37.941 37.864 64.64l1.957 401.473c.132 26.933-14.332 51.957-37.739 65.305" fill="url(#b)"/></g></svg>